HIERARCHY
ROOT Bip001_Pelvis
{
  OFFSET 7.937 94.8971 -8.5489
  CHANNELS 6 Xposition Yposition Zposition Zrotation Xrotation Yrotation
  JOINT Bip001_Spine
  {
    OFFSET 1.44608e-005 10.4157 -0.0118244
    CHANNELS 3 Zrotation Xrotation Yrotation
    JOINT Bip001_L_Thigh
    {
      OFFSET 11.2582 -10.4157 0.0118432
      CHANNELS 3 Zrotation Xrotation Yrotation
      JOINT Bip001_L_Calf
      {
        OFFSET -0.720717 -44.8687 0.366937
        CHANNELS 3 Zrotation Xrotation Yrotation
        JOINT Bip001_L_Foot
        {
          OFFSET -0.664439 -41.3745 -3.62995
          CHANNELS 3 Zrotation Xrotation Yrotation
          JOINT Bip001_L_Toe0
          {
            OFFSET 0.0541047 -10.4146 13.4033
            CHANNELS 3 Zrotation Xrotation Yrotation
            End Site
            {
              OFFSET -1.04503e-005 0 7.70137
            }
          }
        }
      }
    }
    JOINT Bip001_R_Thigh
    {
      OFFSET -11.2582 -10.4156 0.0118122
      CHANNELS 3 Zrotation Xrotation Yrotation
      JOINT Bip001_R_Calf
      {
        OFFSET 0.72059 -44.8687 0.36676
        CHANNELS 3 Zrotation Xrotation Yrotation
        JOINT Bip001_R_Foot
        {
          OFFSET 0.664321 -41.3745 -3.62979
          CHANNELS 3 Zrotation Xrotation Yrotation
          JOINT Bip001_R_Toe0
          {
            OFFSET -0.05417 -10.4146 13.4033
            CHANNELS 3 Zrotation Xrotation Yrotation
            End Site
            {
              OFFSET -1.04873e-005 0 7.70137
            }
          }
        }
      }
    }
    JOINT Bip001_Spine1
    {
      OFFSET 1.90638e-005 14.8539 1.10727
      CHANNELS 3 Zrotation Xrotation Yrotation
      JOINT Bip001_Spine2
      {
        OFFSET 2.28934e-005 14.7848 -1.7233
        CHANNELS 3 Zrotation Xrotation Yrotation
        JOINT Bip001_Neck
        {
          OFFSET 2.24514e-005 15.6905 -0.498826
          CHANNELS 3 Zrotation Xrotation Yrotation
          JOINT Bip001_L_Clavicle
          {
            OFFSET 6.17691 -0.000591152 0.00852867
            CHANNELS 3 Zrotation Xrotation Yrotation
            JOINT Bip001_L_UpperArm
            {
              OFFSET 11.773 -0.0611878 0.00197697
              CHANNELS 3 Zrotation Xrotation Yrotation
              JOINT Bip001_L_Forearm
              {
                OFFSET 26.4515 0.0817568 -2.19579
                CHANNELS 3 Zrotation Xrotation Yrotation
                JOINT Bip001_L_Hand
                {
                  OFFSET 32.8677 0.156744 1.67112
                  CHANNELS 3 Zrotation Xrotation Yrotation
                  JOINT Bip001_L_Finger0
                  {
                    OFFSET 6.16268 -2.25226 6.01674
                    CHANNELS 3 Zrotation Xrotation Yrotation
                    End Site
                    {
                      OFFSET 4.30499 -1.46662 0.618148
                    }
                  }
                  JOINT Bip001_L_Finger1
                  {
                    OFFSET 11.2957 -0.718374 -0.201963
                    CHANNELS 3 Zrotation Xrotation Yrotation
                    End Site
                    {
                      OFFSET 6.31952 -0.405163 -0.0802303
                    }
                  }
                }
              }
            }
          }
          JOINT Bip001_R_Clavicle
          {
            OFFSET -6.17691 -0.000574027 0.00851165
            CHANNELS 3 Zrotation Xrotation Yrotation
            JOINT Bip001_R_UpperArm
            {
              OFFSET -11.773 -0.0611516 0.00194365
              CHANNELS 3 Zrotation Xrotation Yrotation
              JOINT Bip001_R_Forearm
              {
                OFFSET -26.4514 0.0822334 -2.19736
                CHANNELS 3 Zrotation Xrotation Yrotation
                JOINT Bip001_R_Hand
                {
                  OFFSET -32.8677 0.156817 1.67144
                  CHANNELS 3 Zrotation Xrotation Yrotation
                  JOINT Bip001_R_Finger0
                  {
                    OFFSET -6.1627 -2.25224 6.0167
                    CHANNELS 3 Zrotation Xrotation Yrotation
                    End Site
                    {
                      OFFSET -4.30499 -1.46662 0.618134
                    }
                  }
                  JOINT Bip001_R_Finger1
                  {
                    OFFSET -11.2958 -0.718344 -0.201994
                    CHANNELS 3 Zrotation Xrotation Yrotation
                    End Site
                    {
                      OFFSET -6.31952 -0.405146 -0.0802475
                    }
                  }
                }
              }
            }
          }
          JOINT Bip001_Head
          {
            OFFSET 1.11782e-005 11.4912 2.09908
            CHANNELS 3 Zrotation Xrotation Yrotation
            End Site
            {
              OFFSET 2.95144e-005 21.2823 -2.83069e-005
            }
          }
        }
      }
    }
  }
}
MOTION
Frames:	8
Frame Time:	0.04
8.1328 93.7114 -7.39377 0.357402 -3.96144 -7.77263 0.437035 1.03995 -0.780544 5.33204 -6.61031 12.5422 -1.16143 23.7609 2.73761 -4.10119 -12.912 0.44631 0.954 -9.55767 1.39834 -7.59313 -10.4531 4.58043 -2.3376 26.22 10.0054 -0.877162 -13.3213 -10.7065 0.741639 -11.6152 -0.828734 1.03281 2.07304 -1.56348 1.03281 2.07308 -1.56348 -1.7307 -0.46988 6.146 -23.5348 9.32836 -21.1589 -57.7861 42.2594 16.5612 14.9411 2.74783 -28.9985 -3.62539 -0.424249 -5.5169 3.18055e-015 -3.18055e-015 3.97569e-016 3.18055e-015 -3.18056e-015 -0 33.1851 2.27137 4.68143 48.9972 27.4436 -9.33642 3.76179 -34.0719 40.8579 6.3561 -1.85783 -8.96109 -3.97569e-016 0 3.18055e-015 -1.19271e-015 7.95139e-016 3.18055e-015 -4.60485 -6.86231 6.3454 
8.2275 92.9551 -7.26043 -0.0342642 -3.91683 -9.25669 0.614987 1.01709 -1.07866 5.93178 -8.06005 13.0249 -1.50854 27.8358 1.8205 -3.26011 -15.4747 2.28131 0.298647 -9.59816 1.9535 -7.23488 -12.2502 5.62202 -2.50025 29.344 10.3501 -0.972754 -14.889 -10.0086 0.78037 -11.5867 -0.972822 1.26704 2.02235 -2.1621 1.26747 2.02239 -2.16213 -2.06241 0.739763 7.42098 -22.4937 8.47957 -22.7952 -59.6876 43.5372 18.6874 16.2587 3.23024 -28.5992 -3.73164 -0.3136 -6.74906 4.77083e-015 1.19271e-015 2.08724e-015 9.54166e-015 1.98785e-015 9.93923e-016 33.0365 -0.109393 2.56324 47.1885 21.5934 -9.69231 5.39067 -35.3925 40.9451 5.2971 -1.52691 -9.98794 -2.38542e-015 0 -0 -2.38542e-015 0 -0 -4.68477 -7.9797 7.49468 
8.29014 92.093 -6.95021 -0.679864 -4.18547 -10.6562 0.720774 0.979787 -1.25188 7.32307 -8.85831 11.7863 -4.04186 31.7559 4.12766 -2.48282 -18.0752 3.23534 -0.0207045 -9.56918 2.24019 -6.70335 -13.5447 6.36362 -2.48441 32.5544 10.5627 -1.33575 -16.5774 -9.26921 0.92642 -11.6298 -1.01504 1.43411 1.94398 -2.50671 1.43295 1.94396 -2.50685 -1.6421 1.95746 8.20619 -21.9244 7.43872 -24.1589 -61.6385 44.1207 20.7531 15.3778 0.720462 -28.8319 -4.18814 -0.675753 -6.48355 -0 0 3.47873e-015 -1.59028e-015 3.97569e-016 3.18055e-015 32.7318 -2.52916 -0.206994 42.5326 13.8068 -11.2382 8.47362 -37.1943 42.1688 5.86414 -2.0664 -10.7745 -3.18055e-015 9.54166e-015 3.18055e-015 -2.64834e-031 9.54167e-015 1.59028e-015 -5.25282 -8.6269 8.47922 
8.45108 90.986 -6.31602 -1.3737 -5.25282 -11.8597 0.852936 1.15156 -1.4409 8.14811 -9.15693 11.3014 -5.66255 36.1623 5.18636 -1.55776 -21.1311 4.31128 -0.571212 -9.63317 2.64785 -6.7583 -14.3435 6.61757 -2.01532 36.4547 10.5227 -1.90086 -18.8397 -8.20313 1.09047 -11.7062 -0.967226 1.61339 2.28306 -2.8823 1.61339 2.28305 -2.8823 -1.76606 2.12419 9.05684 -21.3597 7.4435 -24.9908 -62.3729 43.9526 21.9483 14.8491 0.45435 -28.8485 -3.65995 -0.731164 -5.95906 -1.59028e-015 3.97569e-016 3.97569e-016 -4.77083e-015 7.95139e-016 9.93923e-017 31.776 -3.6969 -2.51492 36.5344 1.78949 -14.535 9.13308 -34.1302 44.633 2.78408 -1.84194 -12.9466 -3.18055e-015 -9.54166e-015 -0 -3.18055e-015 -9.54167e-015 -0 -5.29744 -8.67671 9.29911 
8.61872 89.3694 -5.6726 -2.19465 -6.23901 -12.8027 0.999947 1.31651 -1.60549 8.99843 -10.213 10.3674 -7.81652 41.9005 4.19597 1.04145 -24.8717 8.30116 -1.51704 -9.72999 3.33325 -6.79287 -15.7207 6.68046 -1.35569 41.6894 11.023 -3.09992 -21.7803 -8.07354 1.39852 -11.8436 -0.894547 1.76558 2.60892 -3.19889 1.76558 2.60891 -3.19889 -1.95026 1.85566 9.83975 -21.2132 7.75609 -24.864 -62.3335 44.0536 22.9696 15.0571 0.661532 -29.0414 -3.49117 -0.596269 -5.62986 1.59028e-015 3.97569e-016 -1.09332e-015 3.18055e-015 9.93924e-017 -1.39149e-015 30.0938 -4.19158 -4.60832 29.409 -10.1043 -18.5729 6.44386 -29.2184 47.9314 -1.42645 -0.228266 -15.4281 3.97569e-016 0 -2.78298e-015 -3.97569e-016 -6.36111e-015 -0 -5.0816 -8.69143 9.99054 
8.81788 87.6131 -5.00898 -3.11756 -7.60476 -13.1116 1.02866 1.6163 -1.63977 9.95975 -11.0042 9.87659 -9.75685 47.5129 4.02514 3.39865 -28.3468 10.6528 -2.43319 -9.85006 3.85838 -6.84048 -16.5646 6.73915 -0.120863 46.828 11.7864 -5.17705 -24.6487 -9.52835 2.01545 -12.014 -0.901192 1.75438 3.20869 -3.24725 1.75444 3.20869 -3.24763 -1.45472 0.978483 9.99352 -20.8839 8.50657 -24.8856 -61.9883 43.8256 22.9439 15.3173 1.10702 -28.8642 -3.32465 -0.300219 -4.88864 -1.59028e-015 -1.73937e-016 -9.31803e-017 -3.18055e-015 -8.69683e-017 1.2424e-017 27.3071 -3.92736 -7.50429 20.7441 -26.2686 -23.2114 4.93378 -22.7661 57.7041 -4.13513 0.554238 -16.5906 -1.59028e-015 3.18055e-015 3.18055e-015 -8.82782e-032 -3.18056e-015 -1.59028e-015 -5.43789 -8.23562 10.3553 
8.95464 85.7609 -4.45269 -3.73714 -8.73884 -12.5935 0.846401 1.83122 -1.66512 11.0072 -12.0372 10.6217 -10.1868 52.9934 3.41093 4.68809 -31.5466 11.131 -2.87458 -9.97668 3.94719 -6.47067 -17.3321 6.01468 -0.7872 51.8581 12.2709 -6.22151 -27.7488 -9.77807 2.80412 -12.1979 -0.961441 1.4587 3.64245 -3.28694 1.4587 3.64245 -3.28694 0.019343 0.584397 9.77018 -21.1386 8.76728 -25.0531 -61.6837 42.9619 22.9467 15.6511 1.13565 -28.9328 -2.77165 -0.267706 -3.81749 3.18055e-015 -2.98177e-016 -1.19271e-015 3.18055e-015 -1.98785e-016 -1.19271e-015 23.4963 -3.82766 -10.4991 7.94243 -44.188 -30.9773 1.91724 -10.641 70.7726 -6.96194 2.03187 -15.1613 6.36111e-015 9.54166e-015 -1.59028e-015 4.77083e-015 9.54167e-015 -4.77083e-015 -6.31186 -7.86693 10.7218 
9.19369 84.325 -4.13485 -3.95388 -9.4543 -11.1133 0.661624 1.94915 -1.81912 11.9039 -13.1538 11.9427 -9.73712 57.069 0.744032 6.50446 -33.5513 11.9719 -3.04717 -10.0227 4.01406 -6.92092 -17.8111 6.23041 1.68884 55.4157 9.92894 -7.3405 -29.9816 -10.5446 3.32315 -12.2879 -1.06939 1.15577 3.88085 -3.59572 1.15577 3.88086 -3.59572 0.894809 -0.171361 9.85528 -21.2862 9.25334 -24.3219 -60.7542 41.9068 21.8471 15.6689 0.379161 -28.9754 -2.11313 -0.203586 -2.80019 -3.18055e-015 -1.19271e-015 -1.98785e-016 6.36111e-015 -7.95139e-016 -5.96354e-016 18.8849 -3.0883 -13.3715 -13.0453 -61.9984 -45.0933 -1.88875 2.46751 81.5009 -5.71549 2.55627 -13.2623 1.59028e-015 9.54166e-015 -0 3.18055e-015 9.54167e-015 3.18055e-015 -6.7512 -7.58816 11.1272 
